<?xml version="1.0" encoding="utf-8"?>
<!-- Generator: Adobe Illustrator 19.2.0, SVG Export Plug-In . SVG Version: 6.00 Build 0)  -->
<svg version="1.1" id="baloons" xmlns="http://www.w3.org/2000/svg" xmlns:xlink="http://www.w3.org/1999/xlink" x="0px" y="0px"
	 viewBox="0 0 220.0703 216.9453" enable-background="new 0 0 220.0703 216.9453" xml:space="preserve">
<g>
	<path fill="#314E55" d="M220.0703,84.8281c0-39.6992-26.0195-72-58-72s-58,32.3008-58,72c0,33.6978,18.7732,61.9839,44,69.7903
		v10.2097c0,2.2109,1.7891,4,4,4h7.3118c-3.1562,8.1255-10.2888,11.4426-18.386,15.2109
		c-10.668,4.9609-22.7617,10.5859-23.8281,28.6719c-0.1328,2.2031,1.5508,4.0977,3.7578,4.2266
		c0.0781,0.0039,0.1602,0.0078,0.2383,0.0078c2.1016,0,3.8633-1.6406,3.9883-3.7656c0.7852-13.3164,8.918-17.0977,19.2188-21.8906
		c9.2971-4.324,19.7629-9.2144,23.4077-22.4609h8.2915c2.2109,0,4-1.7891,4-4v-11.594
		C203.2593,143.8052,220.0703,116.7241,220.0703,84.8281z"/>
	<rect x="156.0703" y="156.8281" fill="#FFFFFF" width="16" height="4"/>
	<path fill="#314E55" d="M56.0703,124.8281c2.2109,0,4-1.7891,4-4v-10.9458c18.0898-7.4951,31.1758-28.6099,31.1758-53.4683
		C91.2461,25.3086,70.7812,0,45.625,0S0,25.3086,0,56.4141c0,23.4463,11.635,43.5852,28.136,52.0881
		c-0.0095,0.113-0.0657,0.2102-0.0657,0.3259v12c0,2.2109,1.7891,4,4,4h5.9304c-10.8818,22.4307,3.0315,38.5854,15.4954,52.9648
		c9.2734,10.6914,18.0273,20.793,16.1445,32.4062c-0.3516,2.1797,1.1289,4.2344,3.3086,4.5898
		c0.2188,0.0352,0.4336,0.0508,0.6445,0.0508c1.9297,0,3.625-1.3945,3.9453-3.3594c2.4805-15.3086-7.9297-27.3164-17.9961-38.9297
		c-13.0249-15.021-24.2561-28.0796-12.448-47.7227H56.0703z"/>
	<path fill="#73C9C9" d="M8,56.4141C8,29.7188,24.8789,8,45.625,8s37.6211,21.7188,37.6211,48.4141s-16.875,48.4141-37.6211,48.4141
		S8,83.1094,8,56.4141z"/>
	<path fill="#E65F58" d="M162.0703,148.8281c-27.5703,0-50-28.7109-50-64s22.4297-64,50-64s50,28.7109,50,64
		S189.6406,148.8281,162.0703,148.8281z"/>
	<path fill="#314E55" d="M49.625,21.1133c0-2.2109-1.7891-4-4-4c-17.6641,0-32.0352,17.6289-32.0352,39.3008c0,2.2109,1.7891,4,4,4
		s4-1.7891,4-4c0-17.2578,10.7812-31.3008,24.0352-31.3008C47.8359,25.1133,49.625,23.3242,49.625,21.1133z"/>
	<path fill="#314E55" d="M162.0703,32.8281c-23.1602,0-42,23.3281-42,52c0,2.2109,1.7891,4,4,4s4-1.7891,4-4
		c0-24.2617,15.2539-44,34-44c2.2109,0,4-1.7891,4-4S164.2812,32.8281,162.0703,32.8281z"/>
	<rect x="36.0703" y="112.8281" fill="#FFFFFF" width="16" height="4"/>
</g>
</svg>
