<?xml version="1.0" encoding="utf-8"?>
<!-- Generator: Adobe Illustrator 19.2.0, SVG Export Plug-In . SVG Version: 6.00 Build 0)  -->
<svg version="1.1" id="calendar" xmlns="http://www.w3.org/2000/svg" xmlns:xlink="http://www.w3.org/1999/xlink" x="0px" y="0px"
	 viewBox="0 0 196 204" enable-background="new 0 0 196 204" xml:space="preserve">
<g>
	<rect x="112" y="76" fill="#73C9C9" width="12" height="12"/>
	<rect x="112" y="116" fill="#73C9C9" width="12" height="12"/>
	<rect x="72" y="76" fill="#73C9C9" width="12" height="12"/>
	<rect x="152" y="156" fill="#73C9C9" width="12" height="12"/>
	<rect x="112" y="156" fill="#73C9C9" width="12" height="12"/>
	<rect x="152" y="116" fill="#73C9C9" width="12" height="12"/>
	<rect x="72" y="116" fill="#73C9C9" width="12" height="12"/>
	<rect x="120" y="8" fill="#D8D8D8" width="12" height="12"/>
	<polygon fill="#E4AD40" points="188,28 136,28 116,28 76,28 56,28 8,28 8,48 188,48 	"/>
	<rect x="60" y="8" fill="#D8D8D8" width="12" height="12"/>
	<rect x="152" y="76" fill="#73C9C9" width="12" height="12"/>
	<rect x="32" y="76" fill="#73C9C9" width="12" height="12"/>
	<path fill="#E9E7D1" d="M8,172.1641C8,185.3086,18.6953,196,31.8418,196h132.3164C177.3047,196,188,185.3086,188,172.1641V56H8
		V172.1641z M144,72c0-2.2109,1.791-4,4-4h20c2.209,0,4,1.7891,4,4v20c0,2.2109-1.791,4-4,4h-20c-2.209,0-4-1.7891-4-4V72z M144,112
		c0-2.2109,1.791-4,4-4h20c2.209,0,4,1.7891,4,4v20c0,2.2109-1.791,4-4,4h-20c-2.209,0-4-1.7891-4-4V112z M144,152
		c0-2.2109,1.791-4,4-4h20c2.209,0,4,1.7891,4,4v20c0,2.2109-1.791,4-4,4h-20c-2.209,0-4-1.7891-4-4V152z M104,72
		c0-2.2109,1.791-4,4-4h20c2.209,0,4,1.7891,4,4v20c0,2.2109-1.791,4-4,4h-20c-2.209,0-4-1.7891-4-4V72z M104,112
		c0-2.2109,1.791-4,4-4h20c2.209,0,4,1.7891,4,4v20c0,2.2109-1.791,4-4,4h-20c-2.209,0-4-1.7891-4-4V112z M104,152
		c0-2.2109,1.791-4,4-4h20c2.209,0,4,1.7891,4,4v20c0,2.2109-1.791,4-4,4h-20c-2.209,0-4-1.7891-4-4V152z M64,72
		c0-2.2109,1.791-4,4-4h20c2.209,0,4,1.7891,4,4v20c0,2.2109-1.791,4-4,4H68c-2.209,0-4-1.7891-4-4V72z M64,112
		c0-2.2109,1.791-4,4-4h20c2.209,0,4,1.7891,4,4v20c0,2.2109-1.791,4-4,4H68c-2.209,0-4-1.7891-4-4V112z M64,152
		c0-2.2109,1.791-4,4-4h20c2.209,0,4,1.7891,4,4v20c0,2.2109-1.791,4-4,4H68c-2.209,0-4-1.7891-4-4V152z M24,72
		c0-2.2109,1.791-4,4-4h20c2.209,0,4,1.7891,4,4v20c0,2.2109-1.791,4-4,4H28c-2.209,0-4-1.7891-4-4V72z M24,112
		c0-2.2109,1.791-4,4-4h20c2.209,0,4,1.7891,4,4v20c0,2.2109-1.791,4-4,4H28c-2.209,0-4-1.7891-4-4V112z M24,152
		c0-2.2109,1.791-4,4-4h20c2.209,0,4,1.7891,4,4v20c0,2.2109-1.791,4-4,4H28c-2.209,0-4-1.7891-4-4V152z"/>
	<rect x="32" y="156" fill="#73C9C9" width="12" height="12"/>
	<rect x="72" y="156" fill="#73C9C9" width="12" height="12"/>
	<rect x="32" y="116" fill="#73C9C9" width="12" height="12"/>
	<path fill="#314E55" d="M192,20h-52V4c0-2.2109-1.791-4-4-4h-20c-2.209,0-4,1.7891-4,4v16H80V4c0-2.2109-1.791-4-4-4H56
		c-2.209,0-4,1.7891-4,4v16H4c-2.209,0-4,1.7891-4,4v28v120.1641C0,189.7188,14.2832,204,31.8418,204h132.3164
		C181.7168,204,196,189.7188,196,172.1641V52V24C196,21.7891,194.209,20,192,20z M120,8h12v12h-12V8z M60,8h12v12H60V8z M8,28h48h20
		h40h20h52v20H8V28z M188,172.1641C188,185.3086,177.3047,196,164.1582,196H31.8418C18.6953,196,8,185.3086,8,172.1641V56h180
		V172.1641z"/>
	<path fill="#314E55" d="M28,96h20c2.209,0,4-1.7891,4-4V72c0-2.2109-1.791-4-4-4H28c-2.209,0-4,1.7891-4,4v20
		C24,94.2109,25.791,96,28,96z M32,76h12v12H32V76z"/>
	<path fill="#314E55" d="M28,136h20c2.209,0,4-1.7891,4-4v-20c0-2.2109-1.791-4-4-4H28c-2.209,0-4,1.7891-4,4v20
		C24,134.2109,25.791,136,28,136z M32,116h12v12H32V116z"/>
	<path fill="#314E55" d="M28,176h20c2.209,0,4-1.7891,4-4v-20c0-2.2109-1.791-4-4-4H28c-2.209,0-4,1.7891-4,4v20
		C24,174.2109,25.791,176,28,176z M32,156h12v12H32V156z"/>
	<path fill="#314E55" d="M68,96h20c2.209,0,4-1.7891,4-4V72c0-2.2109-1.791-4-4-4H68c-2.209,0-4,1.7891-4,4v20
		C64,94.2109,65.791,96,68,96z M72,76h12v12H72V76z"/>
	<path fill="#314E55" d="M68,136h20c2.209,0,4-1.7891,4-4v-20c0-2.2109-1.791-4-4-4H68c-2.209,0-4,1.7891-4,4v20
		C64,134.2109,65.791,136,68,136z M72,116h12v12H72V116z"/>
	<path fill="#314E55" d="M68,176h20c2.209,0,4-1.7891,4-4v-20c0-2.2109-1.791-4-4-4H68c-2.209,0-4,1.7891-4,4v20
		C64,174.2109,65.791,176,68,176z M72,156h12v12H72V156z"/>
	<path fill="#314E55" d="M108,96h20c2.209,0,4-1.7891,4-4V72c0-2.2109-1.791-4-4-4h-20c-2.209,0-4,1.7891-4,4v20
		C104,94.2109,105.791,96,108,96z M112,76h12v12h-12V76z"/>
	<path fill="#314E55" d="M108,136h20c2.209,0,4-1.7891,4-4v-20c0-2.2109-1.791-4-4-4h-20c-2.209,0-4,1.7891-4,4v20
		C104,134.2109,105.791,136,108,136z M112,116h12v12h-12V116z"/>
	<path fill="#314E55" d="M108,176h20c2.209,0,4-1.7891,4-4v-20c0-2.2109-1.791-4-4-4h-20c-2.209,0-4,1.7891-4,4v20
		C104,174.2109,105.791,176,108,176z M112,156h12v12h-12V156z"/>
	<path fill="#314E55" d="M148,96h20c2.209,0,4-1.7891,4-4V72c0-2.2109-1.791-4-4-4h-20c-2.209,0-4,1.7891-4,4v20
		C144,94.2109,145.791,96,148,96z M152,76h12v12h-12V76z"/>
	<path fill="#314E55" d="M148,136h20c2.209,0,4-1.7891,4-4v-20c0-2.2109-1.791-4-4-4h-20c-2.209,0-4,1.7891-4,4v20
		C144,134.2109,145.791,136,148,136z M152,116h12v12h-12V116z"/>
	<path fill="#314E55" d="M148,176h20c2.209,0,4-1.7891,4-4v-20c0-2.2109-1.791-4-4-4h-20c-2.209,0-4,1.7891-4,4v20
		C144,174.2109,145.791,176,148,176z M152,156h12v12h-12V156z"/>
</g>
</svg>
