<?xml version="1.0" encoding="utf-8"?>
<!-- Generator: Adobe Illustrator 19.2.0, SVG Export Plug-In . SVG Version: 6.00 Build 0)  -->
<svg version="1.1" id="excited" xmlns="http://www.w3.org/2000/svg" xmlns:xlink="http://www.w3.org/1999/xlink" x="0px" y="0px"
	 viewBox="0 0 232 184" enable-background="new 0 0 232 184" xml:space="preserve">
<g>
	<path fill="#334F55" d="M212,176v-66c0-40.8047-33.2051-74-74.0215-74h-43.957C87.7959,36,81.7808,36.8564,76,38.3105V17.9902
		C76,8.0703,67.9258,0,58,0S40,8.0703,40,17.9902V58c0,0.4565,0.1191,0.8779,0.26,1.2871C27.7383,72.5469,20,90.3682,20,110v66H0v8
		h24h32h20h12h112h8h24v-8H212z"/>
	<path fill="#C5D35E" d="M58,8c5.5137,0,10,4.4824,10,9.9902V40.811c-7.2773,2.7451-14.0178,6.5669-20,11.3325V17.9902
		C48,12.4824,52.4863,8,58,8z"/>
	<path fill="#C5D35E" d="M200,176H88H76H56H28v-66c0-36.3926,29.6172-66,66.0215-66h43.957C174.3828,44,204,73.6074,204,110v66H200z
		"/>
	<path fill="#334F55" d="M175.0918,124.1055l-120,28c-1.9805,0.4609-3.2988,2.334-3.0664,4.3516
		C52.2578,158.4766,53.9688,160,56,160h76h8h12h8h16c2.209,0,4-1.791,4-4v-28c0-1.2207-0.5566-2.375-1.5137-3.1328
		C177.5312,124.1094,176.2812,123.8262,175.0918,124.1055z"/>
	<polygon fill="#EAE8D2" points="90.7461,152 132,142.374 132,152 	"/>
	<polygon fill="#EAE8D2" points="140,152 140,140.5078 152,137.7075 152,152 	"/>
	<polygon fill="#EAE8D2" points="172,152 160,152 160,135.8408 172,133.041 	"/>
	<path fill="#334F55" d="M72,100c0-6.6172,5.3828-12,12-12s12,5.3828,12,12v4h8v-4c0-11.0273-8.9727-20-20-20s-20,8.9727-20,20v4h8
		V100z"/>
	<path fill="#334F55" d="M136,100c0-6.6172,5.3828-12,12-12s12,5.3828,12,12v4h8v-4c0-11.0273-8.9727-20-20-20s-20,8.9727-20,20v4h8
		V100z"/>
</g>
</svg>
