<?xml version="1.0" encoding="utf-8"?>
<!-- Generator: Adobe Illustrator 19.2.0, SVG Export Plug-In . SVG Version: 6.00 Build 0)  -->
<svg version="1.1" id="unknown" xmlns="http://www.w3.org/2000/svg" xmlns:xlink="http://www.w3.org/1999/xlink" x="0px" y="0px"
	 viewBox="0 0 232 172" enable-background="new 0 0 232 172" xml:space="preserve">
<g>
	<path fill="#334F55" d="M212,140V74c0-40.8047-33.207-74-74.0234-74H94.0234C53.207,0,20,33.1953,20,74v66H0v8h24h4h12v8
		c0,8.8223,7.1875,16,16.0234,16h19.9531C84.8125,172,92,164.8223,92,156v-8h48v8c0,8.8223,7.1875,16,16.0234,16h19.9531
		C184.8125,172,192,164.8223,192,156v-8h12h4h24v-8H212z"/>
	<path fill="#EAE8D2" d="M84,156c0,4.4121-3.5977,8-8.0234,8H56.0234C51.5977,164,48,160.4121,48,156v-8h36V156z"/>
	<path fill="#EAE8D2" d="M184,156c0,4.4121-3.5977,8-8.0234,8h-19.9531c-4.4258,0-8.0234-3.5879-8.0234-8v-8h36V156z"/>
	<path fill="#EAE8D2" d="M188,140h-4h-36h-4H88h-4H48h-4H28V74C28,37.6074,57.6172,8,94.0234,8h43.9531
		C174.3828,8,204,37.6074,204,74v66H188z"/>
	<path fill="#334F55" d="M84,60c-13.2344,0-24,10.7656-24,24s10.7656,24,24,24s24-10.7656,24-24S97.2344,60,84,60z"/>
	<path fill="#77C9C9" d="M99.7776,86.1982C98.9556,82.6548,95.7886,80,92,80c-4.4102,0-8,3.5879-8,8s3.5898,8,8,8
		c1.2109,0,2.3477-0.291,3.3777-0.7744C92.4751,98.167,88.4509,100,84,100c-8.8242,0-16-7.1777-16-16s7.1758-16,16-16
		s16,7.1777,16,16C100,84.7529,99.8787,85.4727,99.7776,86.1982z"/>
	<path fill="#334F55" d="M148,60c-13.2344,0-24,10.7656-24,24s10.7656,24,24,24s24-10.7656,24-24S161.2344,60,148,60z"/>
	<path fill="#77C9C9" d="M148,100c-4.4509,0-8.4751-1.833-11.3777-4.7744C137.6523,95.709,138.7891,96,140,96c4.4102,0,8-3.5879,8-8
		s-3.5898-8-8-8c-3.7886,0-6.9556,2.6548-7.7776,6.1982C132.1213,85.4727,132,84.7529,132,84c0-8.8223,7.1758-16,16-16
		s16,7.1777,16,16S156.8242,100,148,100z"/>
	<path fill="#334F55" d="M116,100c-6.6172,0-12,5.3828-12,12s5.3828,12,12,12s12-5.3828,12-12S122.6172,100,116,100z"/>
	<circle fill="#EAE8D2" cx="116" cy="112" r="4"/>
</g>
</svg>
